<?xml version="1.0" encoding="utf-8"?>
<!-- Uploaded to: SVG Repo, www.svgrepo.com, Generator: SVG Repo Mixer Tools -->
<svg width="800px" height="800px" viewBox="0 0 64 64" xmlns="http://www.w3.org/2000/svg">
<path d="m31.74 4.37c7.75-.1 14.33 4.5 14.58 4.92s-.16 1.08-.41 1.25-1.09.5-.84.58 4.09-.25 5 .17 4.67 3.71 4.75 4.71-.16 1.08-.41 1.25a6 6 0 0 1 -1.5.25s2 .33 2.66 1.5 2.09 3 1.59 3.58a1.81 1.81 0 0 1 -1.42.5 43.32 43.32 0 0 1 2.5 5.17c.33 1.25.75 1.75.08 1.83s-5.75.25-5.75.25 6 .67 6.09 1.09a31.17 31.17 0 0 1 .91 4.58 11.06 11.06 0 0 1 -1.5 2.75s-7.75-.42-12.41-.42-7 0-7 .25.33 1 .75 1 9.25-.16 9.5.09a16.11 16.11 0 0 1 .25 3.33l-13.16 1.12s-.33.67.08.75 15.84-1.16 16.09-.5.41 3.09-.09 3.34-15.5.16-15.58.58-.42 1.58-.17 1.58 12.25-.91 12.42-.25a8 8 0 0 1 -.25 3.5c-.33.42-11.25 1.09-11.25 1.09s.42 4.75.08 5-11.5 1.91-19.5-3.75-12.09-17.84-12.34-18.46a11.57 11.57 0 0 1 -.42-1.84s-2.41-6.5 2.09-14.66 11.84-15.96 24.58-16.13z" fill="#1d1d1b"/>
<path d="m32 5.73c5.24-.46 9.37 2.44 10.25 2.81s1.87.81 1.56 1.13-6 1.31-6.06 1.62-.19 1.63 0 1.69 10.5-.69 11.44-.25 4 2.94 3.62 3.12-13.75.19-13.94.5-.56 2.32 0 2.57 14.19.06 14.63.37 1.31 2.31 1.06 2.5-15.87-.06-16.25.38-.06 2.37.31 2.43 16.07.13 16.38.5 1.62 3.25 1.25 3.38-15.44.62-15.56 1 .06 1.75.31 1.87 14.56.69 14.87 1.19 1.19.63.13.69-17.31.69-32.94.37-16.26-.31-16.26-.31-.5-8.19 3.06-13.44 9.19-13 22.14-14.12z" fill="#1f4863"/>
<g fill="#1d1d1b">
<path d="m36.43 14.17s9.31-.5 9.5-.13.75 1.06.25 1.06-9.75.57-9.88.38a4.16 4.16 0 0 1 .13-1.31z"/>
<path d="m34.74 19.48c.31 0 1.87-.19 1.94.06s.18 1.31-.13 1.25-2.44-.19-2.44-.19z"/>
<path d="m32.93 26.54c.25.06 18.75-.25 19.12.06s.69.75.38.82-19.32.37-19.5.25 0-1.13 0-1.13z"/>
<path d="m29.74 30.42c.25 0 7.62-.38 7.81-.07s.75.63.25.82a74.33 74.33 0 0 1 -8.19.37c-.31-.12.13-1.12.13-1.12z"/>
<path d="m23.68 9.79a5 5 0 0 1 2.5-1.37c1.87-.57 2.68-.75 2.93-.44s.38.81.13.94-2.44.31-3.19.81-.87.81-1.31.81-1.06-.75-1.06-.75z"/>
<path d="m32.05 7.6c.18-.06 1.81-.18 1.94.13s.5 6.62.12 6.87-2.56.38-2.5-.12.25-6.81.44-6.88z"/>
<path d="m23.05 11.54c.25.06 4.69-.12 4.69.13s.31.81-.19.93a29.86 29.86 0 0 1 -4.69.07c-.18-.13.19-1.13.19-1.13z"/>
<path d="m22 14.48c4.27-.88 8.19.87 9.44 5.5s-.63 9.69-8.88 9.87-11.51-13.12-.56-15.37z"/>
</g>
<path d="m22.18 16.35c2.82-.73 7.82-.35 7.56 6.5s-9.13 5.75-10.74 3.75-3.95-8.43 3.18-10.25z" fill="#85bfe9"/>
<path d="m22.8 18.42c3.51-.87 4.94 1.68 4.88 4.25s-3.5 4.33-6.38 2.68-2.56-5.93 1.5-6.93z" fill="#1d1d1b"/>
<path d="m23.05 19.6a2.69 2.69 0 1 1 -1 4.82 2.62 2.62 0 0 1 1-4.82z" fill="#1f4863"/>
<path d="m23.43 21.1c1.17-.16 1.5.69 1.25 1.44a1.39 1.39 0 0 1 -1.88.63 1.19 1.19 0 0 1 .63-2.07z" fill="#1d1d1b"/>
<path d="m10.24 23c.31-.47 1.75.75 1.69 1a11 11 0 0 0 -1.32 4c-.25 2.25-.06 2.87-.25 3.06s-1.81.44-1.87.06a13.48 13.48 0 0 1 1.75-8.12z" fill="#1d1d1b"/>
<path d="m7.86 35.29c.5-.1 14.32.25 24.57.19s25.06-.56 25.06-.38-.19 1.44-.63 1.57-19.93.25-20.06.68-.06 3.19.25 3.32 10.13.43 10.13.43.18.63-.07.75-13.5 1-13.5 1.38-.06 2.56.32 2.87 15.75-.75 15.87-.43.31.75.06.75-15.62.87-15.75 1.18-.06 3.25.32 3.44 12.31-.37 12.37-.04.31.81 0 .87-12.19 1.13-12.19 1.36.69 4 .44 4.12-10.69 1.25-16.69-4.18-9.31-11.63-9.75-13.44-1.37-4.31-.75-4.44z" fill="#1f4863"/>
<path d="m16.05 46.73c-.19-.19-3.31-4-3.81-5.56s-1.13-2.75-.69-2.94 9.19-1.31 9.56-.88.32 1.88.94 2.13 7-.31 7.13.19.18 2.06-.07 2.12-6.68.19-7.37-.12-1.94-2.57-1.94-2.57-3.19.07-4.19.19-2.06.25-1.87.38 1.56 3.43 2.75 5.25l1.19 1.81z" fill="#1d1d1b"/>
<path d="m19.24 43.1c.19-.06.87-.37 1.12-.06s1.75 3.25 1.5 3.5-.37.75-.87.31a20.85 20.85 0 0 1 -1.75-3.75z" fill="#1d1d1b"/>
<path d="m21.36 48.1s6.44-.5 6.63-.18.56.75.06.87a58.49 58.49 0 0 1 -6.5.19c-.19-.13-.19-.88-.19-.88z" fill="#1d1d1b"/>
<path d="m19.43 50c.22 0 .81 1.06 1.56 1.75a9.53 9.53 0 0 1 1.12 1.25s-.43.5-.68.44a26.91 26.91 0 0 1 -2.94-3c-.13-.27.62-.44.94-.44z" fill="#1d1d1b"/>
<path d="m25.43 52.6c.68.07 4.75-.18 5 0s.62.82.18.88a45.29 45.29 0 0 1 -5.06.06c-.31-.12-.12-.94-.12-.94z" fill="#1d1d1b"/>
<path d="m30.61 45c.38-.06.94-.19.94.06s.31 5.19-.06 5.25-.63.75-.69-.12-.19-5.19-.19-5.19z" fill="#1d1d1b"/>
<path d="m31.74 40.17a4.81 4.81 0 0 1 2.5 0c.12.25.37 1.06.12 1.06s-2.56.31-2.68 0a2.46 2.46 0 0 1 .06-1.06z" fill="#1d1d1b"/>
<path d="m27.74 36.85c.37 0 6.94-.06 6.94.19s.25.69-.13.81a55.22 55.22 0 0 1 -6.56 0c-.44-.12-.5-1-.25-1z" fill="#1d1d1b"/>
</svg>