<?xml version="1.0" encoding="utf-8"?>
<!-- Uploaded to: SVG Repo, www.svgrepo.com, Generator: SVG Repo Mixer Tools -->
<svg width="800px" height="800px" viewBox="0 0 64 64" xmlns="http://www.w3.org/2000/svg">
<path d="m13.37 24c.14 0-1.62-6.5.84-10.83s5.79-8.81 14.71-10.17 16.62 2.29 19.25 5.5 3.25 9.33 3.33 11.66 0 4.17 0 4.17 3.12.17 3.08 5.5-2.25 5.83-2.25 5.83 3.79 4.88 3.83 8.59-2.54 6.54-2.95 7a4.17 4.17 0 0 1 -1.21.87s.62 5.17-2.21 6.71-8.79 1.66-9.5 1.58a17.17 17.17 0 0 1 -2.21-.59 15.18 15.18 0 0 1 -6.08 1.54 10.94 10.94 0 0 1 -5.67-2.08s-4.58 1.83-8.17.83a9.11 9.11 0 0 1 -6.45-6c-.84-2.54-.5-3.45-.5-3.45a11.3 11.3 0 0 1 -3.21-6c-.46-3.46 1.12-7.13 2.12-8.88a8.11 8.11 0 0 1 1.71-2.29s-1.21-1-1.37-4.17 1.62-5.12 2.91-5.32z" fill="#1d1d1b"/>
<path d="m17 23.2a21.24 21.24 0 0 1 -.63-4.2 4.79 4.79 0 0 0 0-1.92 9.36 9.36 0 0 0 -1.12-1s1.71-6 6.5-8.87 10.42-3.39 15.83-2.35 9.75 5.14 10.75 7.55a15.76 15.76 0 0 1 1 5.29s-1.83.41-1.79.62a40 40 0 0 1 .13 4.88 58.27 58.27 0 0 1 -16.21 1.87 55.6 55.6 0 0 1 -14.46-1.87z" fill="#ffffff"/>
<path d="m51.42 26c.77-.41 1.54 1 1.62 1.33a6.31 6.31 0 0 1 0 1.17 1.07 1.07 0 0 0 -1.5.67 3.25 3.25 0 0 0 .59 3.08 1.54 1.54 0 0 0 1.12.17s-.75 2-1.42 2.12-1.66-1.42-1.75-3.29.54-4.84 1.34-5.25z" fill="#1f4863"/>
<path d="m12 27s.66-1.38 1.29-1.63 2.58 1 2.17 4.38-1.67 4-2.25 3.87-1.21-1.88-1.21-1.88a1 1 0 0 0 1.67-.74 6.61 6.61 0 0 0 .08-3.29 2.33 2.33 0 0 0 -1.75-.71z" fill="#1f4863"/>
<path d="m16.37 26.2a53.81 53.81 0 0 0 17.21 1.87c9.67-.62 15.71-1.37 15.71-1.37s-1 4.29-.25 5.91a14.67 14.67 0 0 0 1.83 2.84s4 7.91 3.38 10.16-3.08 4.39-3.08 4.39a10 10 0 0 0 -3.17-3.72c-2-1.29-3.92-2.62-3.92-2.62s1.8-3 2.88-3.67a2.94 2.94 0 0 1 3 .08c.38.38.54.5.67.34a1.77 1.77 0 0 0 .29-.84 5.64 5.64 0 0 0 -2.67-1.33c-1.17-.24-2.25 1.12-3.17 2.33s-1.5 1.92-1.5 1.92-2.58-2.49-5.16-5.33-4.42-3.67-6.34-3.63-3.91 3.79-6.66 5.79-4.42 3.13-4.42 3.13-3.92-4.21-4.88-4.29-3 1.16-2.87 1.45.58 1.09.83 1 1.75-1.16 2.29-.79 3.8 3.46 3.67 3.79-2.42 1.39-4.75 2.88a12.72 12.72 0 0 0 -2.87 2.21s-2.96-2.7-2.42-6.17a27.32 27.32 0 0 1 3-7.71s2.83-.41 3.25-2.62a33.06 33.06 0 0 0 .12-6z" fill="#ffffff"/>
<path d="m32.71 39.11c2.29 0 7.16 5 11.79 7.63s6.5 5.08 5.12 8.26-3.33 3.21-6.16 3.29a37.42 37.42 0 0 1 -5.59-.54 10.36 10.36 0 0 1 -6 1.58c-3.54-.2-4.83-1.91-5.25-2s-4.41 1.79-8.5.29-5.62-6.21-4-8.13 7.25-3.25 10.75-6 4.13-4.29 7.84-4.38z" fill="#ffffff"/>
<g fill="#1d1d1b">
<path d="m18 13.78a8 8 0 0 1 2.42-3.54c2-1.83 2.71-2.08 2.83-2s.88.67.75.83-2.62 2.13-3.29 2.79-1.29 2.8-1.5 2.75-.92-.79-1.21-.83z"/>
<path d="m43.33 9.32c.34.07 2.71 1.21 2.54 1.63s-.12.54-.33.54a10.89 10.89 0 0 1 -2.29-1c-.13-.17-.13-1.21.08-1.17z"/>
<path d="m43.25 11.78s4.5 2.17 4.58 2.54a.6.6 0 0 1 -.16.59s-4.21-2-4.34-2.13-.33-.92-.08-1z"/>
<path d="m43.25 14.45a32.63 32.63 0 0 1 4.42 2c.08.25 0 .66-.09.75a39.16 39.16 0 0 1 -4.46-1.79 3.23 3.23 0 0 1 .13-.96z"/>
<path d="m42.92 16.86a10.08 10.08 0 0 1 3.66 1.71c0 .34.25.75 0 .75a26.31 26.31 0 0 1 -3.87-1.58c-.17-.17.04-.74.21-.88z"/>
<path d="m42.75 19.2a20.85 20.85 0 0 1 3.79 1.8c.13.17 0 .92-.12.88s-3.63-1.42-3.75-1.59-.13-1.09.08-1.09z"/>
<path d="m42.25 21.7c.19.18 2.54.87 2.46 1.08a.6.6 0 0 1 -.46.42 6.11 6.11 0 0 1 -2.08-.71c-.17-.21.04-.83.08-.79z"/>
<path d="m18.5 28a36.33 36.33 0 0 0 5.54.79c3 .13 4.38.42 4.38 1.17s-1.84 3.12-5.21 3.5-5 .29-5.34-.09-.2-5.09.63-5.37z"/>
<path d="m37.62 29.2c.48-.69 5.63-.2 7.38-.2s2.54 0 2.58.25.25 4.08 0 4.33a10.14 10.14 0 0 1 -6-.17c-2.37-1-4.33-3.67-3.96-4.21z"/>
<path d="m16.71 34.61a6.09 6.09 0 0 0 4.54 1.3c2.75-.38 6.25-3.55 8.12-4.63s2.75-1.46 4.34-1.25 4 2.5 6.29 4 4 2.17 5.46 2.08 1.83-.37 1.87 0 .17.92 0 1a7.37 7.37 0 0 1 -4.91-.11c-2-.92-7.13-5.79-9.46-5.79s-8.09 5.5-11.42 5.83-5.46-1.46-5.46-1.66.42-.81.63-.77z"/>
<path d="m12.71 42.74c0-.22 2.25-1.71 2.58-1.5a.54.54 0 0 1 .21.79 11.58 11.58 0 0 1 -2.33 1.54c-.17 0-.5-.66-.46-.83z"/>
<path d="m13.62 44.45c.06-.22 2.25-1.71 2.59-1.5a.55.55 0 0 1 .21.79 11.37 11.37 0 0 1 -2.34 1.54c-.21 0-.5-.67-.46-.83z"/>
<path d="m51.22 42.66c-.06-.22-2.25-1.71-2.59-1.5a.55.55 0 0 0 -.21.79 11.37 11.37 0 0 0 2.34 1.54c.24 0 .5-.67.46-.83z"/>
<path d="m50.3 44.36c-.06-.21-2.25-1.7-2.58-1.5a.55.55 0 0 0 -.21.8 11 11 0 0 0 2.33 1.54c.21 0 .5-.67.46-.84z"/>
<path d="m39.72 44.45c-.06-.22-2.25-1.71-2.59-1.5a.55.55 0 0 0 -.21.79 11.37 11.37 0 0 0 2.34 1.54c.21 0 .5-.67.46-.83z"/>
<path d="m38.8 46.16c-.06-.22-2.25-1.71-2.58-1.5a.53.53 0 0 0 -.21.79 11 11 0 0 0 2.33 1.55c.21 0 .5-.68.46-.84z"/>
<path d="m23 46.41c.33.33 1.37 1.87 1.62 1.75s.71-.34.55-.5-1.55-2-1.8-1.84a1.24 1.24 0 0 0 -.37.59z"/>
<path d="m39.37 47.91c.09-.21 1.05-1.38 1.3-1.38s.79.29.66.67a4.08 4.08 0 0 1 -1.41 1.29c-.17 0-.55-.58-.55-.58z"/>
<path d="m32 45.57c2-.12 4 1.13 5.62 2.75s1 1.63 2.75 1.67 5.92-1.5 7.5 1.33.13 4.92-1.87 5.68-5 0-6.17-.17a7.52 7.52 0 0 0 -2.12-.25 6.85 6.85 0 0 1 -5.63 1.88 8.44 8.44 0 0 1 -5.5-2.25c-.37-.21-3.5 1.46-6.62.87s-4.13-2.91-3.75-5a5 5 0 0 1 5.87-3.58c2.71.75 3.92 1.79 4.84 1.21s1.7-3.93 5.08-4.14z"/>
</g>
<path d="m32.5 46.74c2.34 0 4.21 3.29 5.46 3.92s4.91-.25 7 .12a2.53 2.53 0 0 1 2.25 3.22c-.21 1.41-1.21 2.53-3.63 2.45s-5-1.38-5.75-1.25-2.58 2.08-4.25 2.33a7.58 7.58 0 0 1 -4.66-1 12.29 12.29 0 0 0 -2.17-1.53c-.67-.21-2.92 1.29-5.71 1s-3.71-2.09-3.37-3.75 1.87-3.09 3.58-2.63 4.71 2.13 5.87 1.5 2.59-4.38 5.38-4.38z" fill="#e6e4da"/>
<path d="m20.62 51.24c1.43-.81 2.88.71 2.75 2.08a1.86 1.86 0 0 1 -3.2 1.09c-1.42-1.21-.5-2.63.45-3.17z" fill="#1f4863"/>
<path d="m43.12 51.7c1.43-.81 2.88.71 2.75 2.08a1.86 1.86 0 0 1 -3.2 1.08c-1.42-1.2-.5-2.62.45-3.16z" fill="#1f4863"/>
<path d="m31.12 51.34a13.87 13.87 0 0 1 .18-2.19c.11 0 2.37-.22 2.48.11a15.2 15.2 0 0 1 .08 2.12s1.79 0 1.82.14a11.67 11.67 0 0 1 0 2.78c-.19.07-1.68.29-1.68.29a7.38 7.38 0 0 1 0 1.54 9.33 9.33 0 0 1 -3 0c0-.22-.08-1.28-.08-1.28s-1.5-.18-1.5-.37a29 29 0 0 1 .3-3.25c.01-.04 1.4.11 1.4.11z" fill="#1f4863"/>
</svg>